<svg width="1448" height="594" viewBox="0 0 1448 594" fill="none" xmlns="http://www.w3.org/2000/svg">
<rect width="1440.94" height="594" fill="url(#paint0_linear_65_72)"/>
<path d="M1339.13 181.889C1335.4 184.283 1330.43 183.197 1328.04 179.463C1325.64 175.729 1326.73 170.761 1330.46 168.367C1341.11 161.536 1355.34 164.645 1362.17 175.297C1369 185.949 1365.89 200.172 1355.23 207.002C1351.5 209.397 1346.53 208.311 1344.14 204.576C1341.74 200.842 1342.83 195.874 1346.56 193.48C1349.76 191.431 1350.69 187.164 1348.64 183.968C1346.59 180.773 1342.33 179.84 1339.13 181.889ZM1385.35 160.433C1370.32 136.999 1339.03 130.159 1315.6 145.185C1311.86 147.58 1310.78 152.548 1313.17 156.282C1315.56 160.016 1320.53 161.102 1324.27 158.708C1340.25 148.462 1361.58 153.126 1371.82 169.104C1382.07 185.081 1377.41 206.416 1361.43 216.661C1343.28 228.299 1333.46 210.401 1315.6 221.514L1315.51 221.572C1308.58 226.011 1299.34 223.991 1294.9 217.067C1292.51 213.333 1287.54 212.247 1283.8 214.641C1280.07 217.035 1278.98 222.004 1281.38 225.738C1290.59 240.099 1309.75 244.304 1324.12 235.129C1332.53 229.942 1346.92 245.046 1370.1 230.183C1393.53 215.157 1400.37 183.867 1385.35 160.433ZM1315.97 177.657C1313.24 173.389 1307.56 172.148 1303.29 174.885C1299.02 177.621 1297.78 183.299 1300.52 187.566C1303.25 191.834 1308.93 193.075 1313.2 190.339C1317.47 187.602 1318.71 181.924 1315.97 177.657ZM1265.24 166.568C1262.51 162.3 1256.83 161.059 1252.56 163.795C1248.3 166.532 1247.05 172.21 1249.79 176.477C1252.53 180.745 1258.2 181.986 1262.47 179.25C1266.74 176.513 1267.98 170.835 1265.24 166.568ZM1384.96 253.366C1385.33 253.131 1385.69 252.895 1386.05 252.654C1413.52 234.401 1426.71 200.749 1418.89 168.908C1417.83 164.601 1413.48 161.967 1409.17 163.025C1404.87 164.083 1402.23 168.433 1403.29 172.741C1409.5 198.03 1399 224.772 1377.14 239.285L1377.1 239.315C1376.83 239.494 1376.56 239.669 1376.29 239.843C1372.56 242.238 1371.47 247.206 1373.87 250.94C1376.26 254.674 1381.23 255.76 1384.96 253.366ZM1286.14 194.39L1293.07 162.685L1279.62 159.744L1272.69 191.449L1286.14 194.39Z" fill="#0F2A70" fill-opacity="0.03"/>
<path d="M433.337 71.305C433.337 72.5371 432.339 73.536 431.106 73.536C429.874 73.536 428.875 72.5371 428.875 71.305C428.875 67.7901 431.735 64.9305 435.25 64.9305C438.765 64.9305 441.624 67.7901 441.624 71.305C441.624 72.5371 440.625 73.536 439.393 73.536C438.161 73.536 437.162 72.5371 437.162 71.305C437.162 70.2505 436.304 69.3926 435.25 69.3926C434.195 69.3926 433.337 70.2505 433.337 71.305ZM435.25 57.2811C427.517 57.2811 421.226 63.5722 421.226 71.305C421.226 72.5371 422.225 73.536 423.457 73.536C424.689 73.536 425.688 72.5371 425.688 71.305C425.688 66.0326 429.977 61.7432 435.25 61.7432C440.522 61.7432 444.812 66.0326 444.812 71.305C444.812 77.2941 439.153 76.9074 439.075 82.7489L439.074 82.779C439.074 85.0637 437.216 86.9224 434.931 86.9224C433.699 86.9224 432.7 87.9213 432.7 89.1535C432.7 90.3857 433.699 91.3846 434.931 91.3846C439.67 91.3846 443.527 87.5338 443.537 82.797C443.584 80.0538 449.274 78.9532 449.274 71.305C449.274 63.5722 442.983 57.2811 435.25 57.2811ZM428.875 76.0858C427.467 76.0858 426.326 77.2274 426.326 78.6356C426.326 80.0438 427.467 81.1854 428.875 81.1854C430.284 81.1854 431.425 80.0438 431.425 78.6356C431.425 77.2274 430.284 76.0858 428.875 76.0858ZM418.676 86.285C417.268 86.285 416.126 87.4266 416.126 88.8348C416.126 90.243 417.268 91.3846 418.676 91.3846C420.084 91.3846 421.226 90.243 421.226 88.8348C421.226 87.4266 420.084 86.285 418.676 86.285ZM456.923 71.3055C456.923 71.1846 456.922 71.0645 456.919 70.9445C456.77 61.7851 450.88 53.6532 442.261 50.7083C441.095 50.31 439.827 50.9321 439.429 52.0981C439.03 53.2641 439.652 54.5323 440.818 54.9307C447.663 57.2697 452.341 63.7365 452.458 71.0226L452.458 71.0375C452.46 71.1266 452.461 71.2157 452.461 71.3055C452.461 72.5377 453.46 73.5366 454.692 73.5366C455.924 73.5366 456.923 72.5377 456.923 71.3055ZM428.315 85.5702L421.941 79.1957L419.236 81.9002L425.611 88.2746L428.315 85.5702Z" fill="#0F2A70" fill-opacity="0.03"/>
<path d="M175.378 207.899C177.78 211.628 176.706 216.599 172.977 219.002C169.248 221.404 164.277 220.329 161.875 216.601C155.021 205.964 158.098 191.734 168.734 184.88C179.371 178.026 193.6 181.103 200.455 191.74C202.857 195.469 201.782 200.439 198.054 202.842C194.325 205.245 189.354 204.17 186.952 200.441C184.895 197.25 180.626 196.327 177.436 198.383C174.245 200.439 173.321 204.708 175.378 207.899ZM153.818 161.732C130.417 176.812 123.648 208.117 138.727 231.517C141.129 235.246 146.1 236.321 149.829 233.918C153.558 231.515 154.632 226.545 152.23 222.816C141.948 206.861 146.564 185.517 162.519 175.235C178.474 164.954 199.818 169.57 210.1 185.525C221.779 203.649 203.902 213.512 215.055 231.342L215.113 231.434C219.568 238.348 217.568 247.597 210.655 252.052C206.926 254.455 205.851 259.426 208.254 263.154C210.656 266.883 215.627 267.958 219.356 265.555C233.697 256.314 237.858 237.141 228.651 222.787C223.445 214.393 238.517 199.968 223.603 176.824C208.523 153.423 177.218 146.653 153.818 161.732ZM171.197 231.068C166.936 233.814 165.708 239.495 168.454 243.756C171.2 248.018 176.88 249.246 181.142 246.5C185.403 243.754 186.632 238.073 183.886 233.812C181.14 229.551 175.459 228.322 171.197 231.068ZM160.222 281.821C155.961 284.567 154.732 290.248 157.478 294.509C160.224 298.77 165.905 299.999 170.166 297.253C174.428 294.507 175.656 288.826 172.91 284.565C170.164 280.303 164.483 279.075 160.222 281.821ZM246.752 161.909C246.516 161.543 246.279 161.181 246.037 160.823C227.723 133.398 194.042 120.275 162.218 128.17C157.913 129.238 155.289 133.594 156.356 137.899C157.424 142.204 161.781 144.829 166.086 143.761C191.361 137.491 218.126 147.939 232.688 169.76L232.718 169.804C232.898 170.07 233.073 170.338 233.248 170.61C235.651 174.339 240.622 175.414 244.351 173.011C248.079 170.608 249.154 165.638 246.752 161.909ZM187.997 260.861L156.277 254.002L153.367 267.459L185.087 274.319L187.997 260.861Z" fill="#0F2A70" fill-opacity="0.03"/>
<path d="M639.564 336.778C640.7 337.257 641.232 338.565 640.754 339.7C640.275 340.836 638.967 341.368 637.831 340.89C634.592 339.525 633.068 335.779 634.433 332.54C635.798 329.301 639.543 327.777 642.782 329.142C643.918 329.62 644.45 330.929 643.972 332.064C643.493 333.199 642.185 333.732 641.049 333.254C640.078 332.844 638.954 333.301 638.545 334.273C638.135 335.245 638.592 336.369 639.564 336.778ZM627.384 329.57C624.381 336.695 627.735 344.936 634.861 347.939C635.996 348.417 637.305 347.885 637.783 346.749C638.262 345.614 637.729 344.306 636.594 343.827C631.735 341.78 629.448 336.161 631.496 331.302C633.543 326.444 639.162 324.157 644.02 326.205C649.539 328.53 646.986 333.594 652.338 335.935L652.366 335.947C654.471 336.835 655.462 339.269 654.575 341.375C654.096 342.51 654.629 343.818 655.764 344.297C656.9 344.775 658.208 344.243 658.687 343.107C660.527 338.74 658.476 333.691 654.115 331.842C651.606 330.733 652.801 325.063 645.753 322.093C638.627 319.09 630.387 322.444 627.384 329.57ZM642.237 342.747C641.69 344.044 642.299 345.54 643.596 346.086C644.894 346.633 646.389 346.025 646.936 344.727C647.483 343.429 646.874 341.934 645.577 341.387C644.279 340.84 642.784 341.449 642.237 342.747ZM647.675 356.106C647.128 357.404 647.736 358.899 649.034 359.446C650.332 359.993 651.827 359.384 652.374 358.087C652.921 356.789 652.312 355.294 651.015 354.747C649.717 354.2 648.222 354.808 647.675 356.106ZM648.724 315.044C648.613 314.997 648.502 314.951 648.39 314.907C639.891 311.488 630.11 313.757 624.05 320.556C623.23 321.476 623.311 322.886 624.23 323.706C625.15 324.526 626.56 324.445 627.38 323.525C632.194 318.126 639.97 316.327 646.729 319.049L646.743 319.054C646.826 319.087 646.908 319.121 646.991 319.156C648.127 319.634 649.435 319.102 649.914 317.966C650.392 316.831 649.86 315.522 648.724 315.044ZM650.759 346.946L642.41 350.345L643.852 353.887L652.201 350.488L650.759 346.946Z" fill="#0F2A70" fill-opacity="0.03"/>
<path d="M1285.17 536.387C1285.17 537.62 1284.17 538.619 1282.94 538.619C1281.71 538.619 1280.71 537.62 1280.71 536.387C1280.71 532.873 1283.57 530.013 1287.09 530.013C1290.6 530.013 1293.46 532.873 1293.46 536.387C1293.46 537.62 1292.46 538.619 1291.23 538.619C1290 538.619 1289 537.62 1289 536.387C1289 535.333 1288.14 534.475 1287.09 534.475C1286.03 534.475 1285.17 535.333 1285.17 536.387ZM1287.09 522.364C1279.35 522.364 1273.06 528.655 1273.06 536.387C1273.06 537.62 1274.06 538.619 1275.29 538.619C1276.52 538.619 1277.52 537.62 1277.52 536.387C1277.52 531.115 1281.81 526.826 1287.09 526.826C1292.36 526.826 1296.65 531.115 1296.65 536.387C1296.65 542.377 1290.99 541.99 1290.91 547.831L1290.91 547.862C1290.91 550.146 1289.05 552.005 1286.77 552.005C1285.53 552.005 1284.54 553.004 1284.54 554.236C1284.54 555.468 1285.53 556.467 1286.77 556.467C1291.51 556.467 1295.36 552.616 1295.37 547.88C1295.42 545.136 1301.11 544.036 1301.11 536.387C1301.11 528.655 1294.82 522.364 1287.09 522.364ZM1280.71 541.168C1279.3 541.168 1278.16 542.31 1278.16 543.718C1278.16 545.126 1279.3 546.268 1280.71 546.268C1282.12 546.268 1283.26 545.126 1283.26 543.718C1283.26 542.31 1282.12 541.168 1280.71 541.168ZM1270.51 551.368C1269.1 551.368 1267.96 552.509 1267.96 553.917C1267.96 555.326 1269.1 556.467 1270.51 556.467C1271.92 556.467 1273.06 555.326 1273.06 553.917C1273.06 552.509 1271.92 551.368 1270.51 551.368ZM1308.76 536.388C1308.76 536.267 1308.76 536.147 1308.75 536.027C1308.6 526.868 1302.71 518.736 1294.1 515.791C1292.93 515.393 1291.66 516.015 1291.26 517.181C1290.87 518.347 1291.49 519.615 1292.65 520.013C1299.5 522.352 1304.18 528.819 1304.29 536.105L1304.29 536.12C1304.3 536.209 1304.3 536.298 1304.3 536.388C1304.3 537.62 1305.29 538.619 1306.53 538.619C1307.76 538.619 1308.76 537.62 1308.76 536.388ZM1280.15 550.653L1273.78 544.278L1271.07 546.983L1277.45 553.357L1280.15 550.653Z" fill="#0F2A70" fill-opacity="0.03"/>
<path d="M1099.14 515.173C1099.14 516.405 1098.14 517.404 1096.91 517.404C1095.68 517.404 1094.68 516.405 1094.68 515.173C1094.68 511.658 1097.54 508.799 1101.05 508.799C1104.57 508.799 1107.43 511.658 1107.43 515.173C1107.43 516.405 1106.43 517.404 1105.2 517.404C1103.96 517.404 1102.96 516.405 1102.96 515.173C1102.96 514.119 1102.11 513.261 1101.05 513.261C1100 513.261 1099.14 514.119 1099.14 515.173ZM1101.05 501.149C1093.32 501.149 1087.03 507.44 1087.03 515.173C1087.03 516.405 1088.03 517.404 1089.26 517.404C1090.49 517.404 1091.49 516.405 1091.49 515.173C1091.49 509.901 1095.78 505.611 1101.05 505.611C1106.32 505.611 1110.61 509.901 1110.61 515.173C1110.61 521.162 1104.96 520.776 1104.88 526.617L1104.88 526.647C1104.88 528.932 1103.02 530.791 1100.73 530.791C1099.5 530.791 1098.5 531.789 1098.5 533.022C1098.5 534.254 1099.5 535.253 1100.73 535.253C1105.47 535.253 1109.33 531.402 1109.34 526.665C1109.39 523.922 1115.08 522.821 1115.08 515.173C1115.08 507.44 1108.78 501.149 1101.05 501.149ZM1094.68 519.954C1093.27 519.954 1092.13 521.096 1092.13 522.504C1092.13 523.912 1093.27 525.054 1094.68 525.054C1096.09 525.054 1097.23 523.912 1097.23 522.504C1097.23 521.096 1096.09 519.954 1094.68 519.954ZM1084.48 530.153C1083.07 530.153 1081.93 531.295 1081.93 532.703C1081.93 534.111 1083.07 535.253 1084.48 535.253C1085.89 535.253 1087.03 534.111 1087.03 532.703C1087.03 531.295 1085.89 530.153 1084.48 530.153ZM1122.73 515.174C1122.73 515.053 1122.72 514.933 1122.72 514.813C1122.57 505.653 1116.68 497.521 1108.06 494.576C1106.9 494.178 1105.63 494.8 1105.23 495.966C1104.83 497.132 1105.45 498.4 1106.62 498.799C1113.47 501.138 1118.14 507.605 1118.26 514.891L1118.26 514.906C1118.26 514.995 1118.26 515.084 1118.26 515.174C1118.26 516.406 1119.26 517.405 1120.49 517.405C1121.73 517.405 1122.73 516.406 1122.73 515.174ZM1094.12 529.438L1087.74 523.064L1085.04 525.768L1091.41 532.143L1094.12 529.438Z" fill="#0F2A70" fill-opacity="0.03"/>
<path d="M678.118 515.173C678.118 516.405 677.119 517.404 675.887 517.404C674.654 517.404 673.656 516.405 673.656 515.173C673.656 511.658 676.515 508.799 680.03 508.799C683.545 508.799 686.405 511.658 686.405 515.173C686.405 516.405 685.406 517.404 684.173 517.404C682.941 517.404 681.942 516.405 681.942 515.173C681.942 514.119 681.084 513.261 680.03 513.261C678.976 513.261 678.118 514.119 678.118 515.173ZM680.03 501.149C672.297 501.149 666.006 507.44 666.006 515.173C666.006 516.405 667.005 517.404 668.237 517.404C669.469 517.404 670.468 516.405 670.468 515.173C670.468 509.901 674.758 505.611 680.03 505.611C685.302 505.611 689.592 509.901 689.592 515.173C689.592 521.162 683.934 520.776 683.855 526.617L683.855 526.647C683.855 528.932 681.996 530.791 679.711 530.791C678.479 530.791 677.48 531.789 677.48 533.022C677.48 534.254 678.479 535.253 679.711 535.253C684.45 535.253 688.307 531.402 688.317 526.665C688.364 523.922 694.054 522.821 694.054 515.173C694.054 507.44 687.763 501.149 680.03 501.149ZM673.656 519.954C672.247 519.954 671.106 521.096 671.106 522.504C671.106 523.912 672.247 525.054 673.656 525.054C675.064 525.054 676.205 523.912 676.205 522.504C676.205 521.096 675.064 519.954 673.656 519.954ZM663.456 530.153C662.048 530.153 660.907 531.295 660.907 532.703C660.907 534.111 662.048 535.253 663.456 535.253C664.865 535.253 666.006 534.111 666.006 532.703C666.006 531.295 664.865 530.153 663.456 530.153ZM701.703 515.174C701.703 515.053 701.702 514.933 701.7 514.813C701.55 505.653 695.66 497.521 687.042 494.576C685.876 494.178 684.607 494.8 684.209 495.966C683.81 497.132 684.433 498.4 685.599 498.799C692.444 501.138 697.121 507.605 697.238 514.891L697.238 514.906C697.241 514.995 697.241 515.084 697.241 515.174C697.241 516.406 698.24 517.405 699.472 517.405C700.704 517.405 701.703 516.406 701.703 515.174ZM673.096 529.438L666.721 523.064L664.017 525.768L670.391 532.143L673.096 529.438Z" fill="#0F2A70" fill-opacity="0.03"/>
<path d="M1356.36 369.618C1359.55 365.244 1359.66 361.76 1358.36 359.419C1357.49 357.864 1355.13 355.377 1349.09 356.082C1347.38 352 1344.77 349.22 1341.29 349.22C1337.82 349.22 1335.21 352 1333.5 356.082C1327.46 355.382 1325.1 357.864 1324.23 359.419C1322.92 361.762 1323.03 365.243 1326.23 369.618C1323.03 373.992 1322.92 377.476 1324.23 379.817C1326.56 383.988 1332.33 383.29 1333.5 383.154C1335.21 387.236 1337.82 390.016 1341.29 390.016C1344.77 390.016 1347.38 387.236 1349.09 383.154C1350.26 383.29 1356.03 383.988 1358.36 379.817C1359.66 377.475 1359.55 373.993 1356.36 369.618V369.618ZM1328.5 377.267C1328.17 376.693 1328.48 375.291 1329.69 373.42C1330.24 373.94 1330.82 374.447 1331.43 374.948C1331.57 376.04 1331.75 377.106 1331.97 378.142C1330.01 378.212 1328.79 377.793 1328.5 377.267V377.267ZM1331.43 364.289C1330.82 364.79 1330.24 365.297 1329.69 365.817C1328.48 363.945 1328.17 362.543 1328.5 361.969C1328.77 361.479 1329.8 361.055 1331.52 361.055C1331.65 361.055 1331.82 361.079 1331.97 361.084C1331.74 362.144 1331.56 363.213 1331.43 364.289V364.289ZM1341.29 354.319C1342.05 354.319 1343.06 355.397 1343.99 357.288C1343.1 357.583 1342.2 357.926 1341.29 358.313C1340.38 357.926 1339.49 357.583 1338.6 357.288C1339.52 355.397 1340.54 354.319 1341.29 354.319ZM1341.29 384.917C1340.54 384.917 1339.52 383.84 1338.6 381.948C1339.49 381.653 1340.38 381.31 1341.29 380.923C1342.2 381.31 1343.1 381.653 1343.99 381.948C1343.06 383.84 1342.05 384.917 1341.29 384.917ZM1346.27 372.381C1344.15 373.901 1342.6 374.718 1341.29 375.367C1339.99 374.718 1338.44 373.9 1336.31 372.381C1336.15 370.166 1336.15 369.071 1336.31 366.856C1338.44 365.338 1339.99 364.52 1341.29 363.87C1342.6 364.521 1344.15 365.339 1346.27 366.856C1346.43 369.07 1346.43 370.165 1346.27 372.381ZM1354.09 377.267C1353.8 377.795 1352.58 378.209 1350.62 378.14C1350.84 377.104 1351.02 376.039 1351.16 374.948C1351.77 374.447 1352.35 373.94 1352.9 373.42C1354.11 375.291 1354.41 376.693 1354.09 377.267ZM1352.9 365.816C1352.35 365.296 1351.77 364.789 1351.16 364.288C1351.02 363.213 1350.84 362.143 1350.62 361.083C1350.76 361.078 1350.93 361.054 1351.07 361.054C1352.79 361.054 1353.82 361.479 1354.09 361.968C1354.41 362.543 1354.11 363.945 1352.9 365.816V365.816ZM1341.29 367.068C1339.89 367.068 1338.74 368.21 1338.74 369.618C1338.74 371.026 1339.89 372.168 1341.29 372.168C1342.7 372.168 1343.84 371.026 1343.84 369.618C1343.84 368.21 1342.7 367.068 1341.29 367.068Z" fill="#0F2A70" fill-opacity="0.03"/>
<path d="M533.894 212.959C537.092 208.585 537.202 205.101 535.897 202.76C535.028 201.204 532.667 198.717 526.628 199.423C524.916 195.34 522.309 192.56 518.832 192.56C515.355 192.56 512.747 195.34 511.036 199.423C505.002 198.723 502.635 201.204 501.767 202.76C500.461 205.102 500.571 208.583 503.77 212.959C500.572 217.332 500.462 220.817 501.767 223.158C504.094 227.328 509.869 226.63 511.036 226.495C512.747 230.576 515.355 233.357 518.832 233.357C522.309 233.357 524.917 230.576 526.628 226.495C527.794 226.63 533.569 227.328 535.897 223.158C537.202 220.815 537.092 217.334 533.894 212.959V212.959ZM506.034 220.608C505.712 220.034 506.018 218.632 507.225 216.76C507.779 217.281 508.356 217.787 508.967 218.289C509.104 219.381 509.286 220.446 509.506 221.482C507.549 221.553 506.328 221.134 506.034 220.608V220.608ZM508.967 207.63C508.357 208.131 507.78 208.638 507.225 209.158C506.019 207.285 505.713 205.884 506.034 205.309C506.305 204.82 507.34 204.395 509.055 204.395C509.191 204.395 509.363 204.419 509.508 204.425C509.282 205.485 509.101 206.554 508.967 207.63V207.63ZM518.832 197.66C519.586 197.66 520.601 198.737 521.53 200.629C520.638 200.924 519.742 201.266 518.832 201.654C517.922 201.266 517.026 200.924 516.134 200.629C517.063 198.737 518.077 197.66 518.832 197.66ZM518.832 228.258C518.077 228.258 517.063 227.18 516.134 225.289C517.026 224.994 517.922 224.651 518.832 224.264C519.742 224.651 520.638 224.994 521.53 225.289C520.601 227.18 519.586 228.258 518.832 228.258ZM523.812 215.721C521.684 217.242 520.135 218.058 518.832 218.708C517.529 218.059 515.979 217.241 513.852 215.721C513.693 213.507 513.693 212.411 513.852 210.197C515.977 208.679 517.528 207.861 518.832 207.211C520.138 207.862 521.689 208.68 523.812 210.197C523.97 212.411 523.971 213.506 523.812 215.721ZM531.63 220.608C531.338 221.136 530.116 221.55 528.158 221.481C528.378 220.445 528.56 219.379 528.696 218.289C529.307 217.787 529.884 217.281 530.439 216.76C531.645 218.632 531.951 220.034 531.63 220.608ZM530.439 209.157C529.884 208.637 529.308 208.13 528.696 207.629C528.562 206.553 528.382 205.484 528.155 204.424C528.3 204.419 528.472 204.395 528.609 204.395C530.324 204.395 531.359 204.82 531.63 205.309C531.951 205.884 531.645 207.285 530.439 209.157V209.157ZM518.832 210.409C517.424 210.409 516.282 211.551 516.282 212.959C516.282 214.367 517.424 215.509 518.832 215.509C520.24 215.509 521.382 214.367 521.382 212.959C521.382 211.551 520.24 210.409 518.832 210.409Z" fill="#0F2A70" fill-opacity="0.03"/>
<path d="M1007.14 518.118C1010.33 513.744 1010.44 510.26 1009.14 507.919C1008.27 506.364 1005.91 503.877 999.87 504.582C998.158 500.5 995.551 497.72 992.074 497.72C988.596 497.72 985.989 500.5 984.278 504.582C978.243 503.882 975.877 506.364 975.008 507.919C973.703 510.262 973.813 513.743 977.012 518.118C973.814 522.492 973.704 525.976 975.008 528.317C977.336 532.488 983.11 531.79 984.278 531.654C985.988 535.736 988.596 538.516 992.074 538.516C995.551 538.516 998.159 535.736 999.87 531.654C1001.04 531.79 1006.81 532.488 1009.14 528.317C1010.44 525.975 1010.33 522.493 1007.14 518.118V518.118ZM979.275 525.767C978.954 525.193 979.26 523.791 980.467 521.92C981.021 522.44 981.598 522.947 982.209 523.448C982.345 524.54 982.528 525.606 982.748 526.642C980.791 526.712 979.569 526.293 979.275 525.767V525.767ZM982.209 512.789C981.599 513.29 981.022 513.797 980.467 514.317C979.261 512.445 978.955 511.043 979.275 510.469C979.547 509.979 980.581 509.555 982.297 509.555C982.433 509.555 982.605 509.579 982.75 509.584C982.524 510.644 982.343 511.713 982.209 512.789V512.789ZM992.074 502.819C992.828 502.819 993.843 503.897 994.772 505.788C993.88 506.083 992.984 506.426 992.074 506.813C991.164 506.426 990.267 506.083 989.376 505.788C990.305 503.897 991.319 502.819 992.074 502.819ZM992.074 533.417C991.319 533.417 990.305 532.34 989.376 530.448C990.267 530.153 991.164 529.81 992.074 529.423C992.984 529.81 993.88 530.153 994.772 530.448C993.843 532.34 992.828 533.417 992.074 533.417ZM997.054 520.881C994.926 522.401 993.377 523.218 992.074 523.867C990.771 523.218 989.221 522.4 987.094 520.881C986.935 518.666 986.935 517.571 987.094 515.356C989.219 513.838 990.769 513.02 992.074 512.37C993.38 513.021 994.931 513.839 997.054 515.356C997.212 517.57 997.212 518.665 997.054 520.881ZM1004.87 525.767C1004.58 526.295 1003.36 526.709 1001.4 526.64C1001.62 525.604 1001.8 524.539 1001.94 523.448C1002.55 522.947 1003.13 522.44 1003.68 521.92C1004.89 523.791 1005.19 525.193 1004.87 525.767ZM1003.68 514.316C1003.13 513.796 1002.55 513.289 1001.94 512.788C1001.8 511.713 1001.62 510.643 1001.4 509.583C1001.54 509.578 1001.71 509.554 1001.85 509.554C1003.57 509.554 1004.6 509.979 1004.87 510.468C1005.19 511.043 1004.89 512.445 1003.68 514.316V514.316ZM992.074 515.568C990.666 515.568 989.524 516.71 989.524 518.118C989.524 519.526 990.666 520.668 992.074 520.668C993.482 520.668 994.623 519.526 994.623 518.118C994.623 516.71 993.482 515.568 992.074 515.568Z" fill="#0F2A70" fill-opacity="0.03"/>
<path d="M1025.09 92.2005C1028.28 87.8268 1028.39 84.3424 1027.09 82.0014C1026.22 80.446 1023.86 77.9591 1017.82 78.6643C1016.11 74.5823 1013.5 71.8022 1010.02 71.8022C1006.55 71.8022 1003.94 74.5823 1002.23 78.6643C996.194 77.9647 993.827 80.446 992.959 82.0014C991.654 84.344 991.764 87.8252 994.962 92.2005C991.765 96.5742 991.655 100.059 992.959 102.4C995.286 106.57 1001.06 105.872 1002.23 105.737C1003.94 109.818 1006.55 112.599 1010.02 112.599C1013.5 112.599 1016.11 109.818 1017.82 105.737C1018.99 105.872 1024.76 106.57 1027.09 102.4C1028.39 100.057 1028.28 96.5758 1025.09 92.2005V92.2005ZM997.226 99.8499C996.905 99.2754 997.211 97.8738 998.417 96.0021C998.972 96.5224 999.549 97.0292 1000.16 97.5304C1000.3 98.6228 1000.48 99.6882 1000.7 100.724C998.741 100.795 997.52 100.376 997.226 99.8499V99.8499ZM1000.16 86.8715C999.549 87.3727 998.972 87.8794 998.417 88.3998C997.212 86.5272 996.906 85.1257 997.226 84.5512C997.498 84.0619 998.532 83.6372 1000.25 83.6372C1000.38 83.6372 1000.56 83.6611 1000.7 83.6667C1000.47 84.7267 1000.29 85.7959 1000.16 86.8715V86.8715ZM1010.02 76.9018C1010.78 76.9018 1011.79 77.9791 1012.72 79.8707C1011.83 80.1655 1010.93 80.5081 1010.02 80.8954C1009.11 80.5081 1008.22 80.1655 1007.33 79.8707C1008.26 77.9791 1009.27 76.9018 1010.02 76.9018ZM1010.02 107.499C1009.27 107.499 1008.26 106.422 1007.33 104.53C1008.22 104.236 1009.11 103.893 1010.02 103.506C1010.93 103.893 1011.83 104.236 1012.72 104.53C1011.79 106.422 1010.78 107.499 1010.02 107.499ZM1015 94.9631C1012.88 96.4834 1011.33 97.3001 1010.02 97.9495C1008.72 97.3009 1007.17 96.4826 1005.04 94.9631C1004.89 92.7487 1004.89 91.6531 1005.04 89.4388C1007.17 87.9209 1008.72 87.1025 1010.02 86.4523C1011.33 87.1033 1012.88 87.9217 1015 89.4388C1015.16 91.6523 1015.16 92.7479 1015 94.9631ZM1022.82 99.8499C1022.53 100.377 1021.31 100.792 1019.35 100.722C1019.57 99.6866 1019.75 98.6212 1019.89 97.5304C1020.5 97.0292 1021.08 96.5224 1021.63 96.0021C1022.84 97.8738 1023.14 99.2754 1022.82 99.8499ZM1021.63 88.399C1021.08 87.8786 1020.5 87.3719 1019.89 86.8707C1019.75 85.7951 1019.57 84.7259 1019.35 83.6659C1019.49 83.6603 1019.66 83.6364 1019.8 83.6364C1021.52 83.6364 1022.55 84.0619 1022.82 84.5504C1023.14 85.1257 1022.84 86.5272 1021.63 88.399V88.399ZM1010.02 89.6507C1008.62 89.6507 1007.47 90.7926 1007.47 92.2005C1007.47 93.6085 1008.62 94.7503 1010.02 94.7503C1011.43 94.7503 1012.57 93.6085 1012.57 92.2005C1012.57 90.7926 1011.43 89.6507 1010.02 89.6507Z" fill="#0F2A70" fill-opacity="0.03"/>
<path d="M338.07 416.942C341.267 412.569 341.377 409.084 340.073 406.743C339.204 405.188 336.843 402.701 330.804 403.406C329.092 399.324 326.485 396.544 323.008 396.544C319.53 396.544 316.923 399.324 315.212 403.406C309.177 402.706 306.811 405.188 305.942 406.743C304.637 409.086 304.747 412.567 307.946 416.942C304.748 421.316 304.638 424.8 305.942 427.141C308.27 431.312 314.044 430.614 315.212 430.479C316.922 434.56 319.53 437.341 323.008 437.341C326.485 437.341 329.093 434.56 330.804 430.479C331.97 430.614 337.745 431.312 340.073 427.141C341.378 424.799 341.268 421.318 338.07 416.942V416.942ZM310.209 424.592C309.888 424.017 310.194 422.616 311.401 420.744C311.955 421.264 312.532 421.771 313.143 422.272C313.279 423.365 313.462 424.43 313.682 425.466C311.725 425.537 310.503 425.118 310.209 424.592V424.592ZM313.143 411.613C312.533 412.114 311.956 412.621 311.401 413.142C310.195 411.269 309.889 409.867 310.209 409.293C310.481 408.804 311.515 408.379 313.231 408.379C313.367 408.379 313.539 408.403 313.684 408.408C313.458 409.468 313.277 410.538 313.143 411.613V411.613ZM323.008 401.644C323.762 401.644 324.777 402.721 325.706 404.612C324.814 404.907 323.918 405.25 323.008 405.637C322.098 405.25 321.201 404.907 320.31 404.612C321.239 402.721 322.253 401.644 323.008 401.644ZM323.008 432.241C322.253 432.241 321.239 431.164 320.31 429.272C321.201 428.977 322.098 428.635 323.008 428.247C323.918 428.635 324.814 428.977 325.706 429.272C324.777 431.164 323.762 432.241 323.008 432.241ZM327.988 419.705C325.86 421.225 324.311 422.042 323.008 422.691C321.705 422.043 320.155 421.224 318.028 419.705C317.869 417.491 317.869 416.395 318.028 414.181C320.153 412.663 321.703 411.844 323.008 411.194C324.314 411.845 325.865 412.663 327.988 414.181C328.146 416.394 328.146 417.49 327.988 419.705ZM335.806 424.592C335.514 425.119 334.292 425.534 332.334 425.464C332.553 424.428 332.736 423.363 332.872 422.272C333.483 421.771 334.059 421.264 334.615 420.744C335.82 422.616 336.126 424.017 335.806 424.592ZM334.615 413.141C334.06 412.62 333.483 412.114 332.872 411.612C332.738 410.537 332.557 409.468 332.331 408.408C332.476 408.402 332.648 408.378 332.785 408.378C334.499 408.378 335.534 408.804 335.806 409.292C336.126 409.867 335.82 411.269 334.615 413.141V413.141ZM323.008 414.393C321.6 414.393 320.458 415.534 320.458 416.942C320.458 418.35 321.6 419.492 323.008 419.492C324.416 419.492 325.557 418.35 325.557 416.942C325.557 415.534 324.416 414.393 323.008 414.393Z" fill="#0F2A70" fill-opacity="0.03"/>
<path d="M716.663 428.365C719.861 423.992 719.971 420.507 718.666 418.166C717.797 416.611 715.436 414.124 709.397 414.829C707.686 410.747 705.078 407.967 701.601 407.967C698.124 407.967 695.517 410.747 693.805 414.829C687.771 414.13 685.404 416.611 684.536 418.166C683.231 420.509 683.341 423.99 686.539 428.365C683.341 432.739 683.231 436.224 684.536 438.565C686.863 442.735 692.638 442.037 693.805 441.902C695.516 445.983 698.124 448.764 701.601 448.764C705.078 448.764 707.686 445.983 709.397 441.902C710.564 442.037 716.338 442.735 718.666 438.565C719.972 436.222 719.862 432.741 716.663 428.365V428.365ZM688.803 436.015C688.482 435.44 688.788 434.039 689.994 432.167C690.549 432.687 691.125 433.194 691.737 433.695C691.873 434.788 692.055 435.853 692.275 436.889C690.318 436.96 689.097 436.541 688.803 436.015V436.015ZM691.737 423.036C691.126 423.538 690.549 424.044 689.994 424.565C688.788 422.692 688.482 421.291 688.803 420.716C689.074 420.227 690.109 419.802 691.824 419.802C691.96 419.802 692.133 419.826 692.278 419.832C692.051 420.892 691.871 421.961 691.737 423.036V423.036ZM701.601 413.067C702.356 413.067 703.37 414.144 704.299 416.036C703.407 416.33 702.511 416.673 701.601 417.06C700.691 416.673 699.795 416.33 698.903 416.036C699.832 414.144 700.846 413.067 701.601 413.067ZM701.601 443.664C700.846 443.664 699.832 442.587 698.903 440.695C699.795 440.4 700.691 440.058 701.601 439.671C702.511 440.058 703.407 440.4 704.299 440.695C703.37 442.587 702.356 443.664 701.601 443.664ZM706.581 431.128C704.454 432.648 702.905 433.465 701.601 434.114C700.298 433.466 698.748 432.647 696.621 431.128C696.462 428.914 696.462 427.818 696.621 425.604C698.746 424.086 700.297 423.267 701.601 422.617C702.907 423.268 704.458 424.087 706.581 425.604C706.739 427.817 706.74 428.913 706.581 431.128ZM714.399 436.015C714.107 436.542 712.886 436.957 710.927 436.887C711.147 435.851 711.329 434.786 711.466 433.695C712.076 433.194 712.653 432.687 713.208 432.167C714.414 434.039 714.72 435.44 714.399 436.015ZM713.208 424.564C712.654 424.043 712.077 423.537 711.466 423.036C711.331 421.96 711.151 420.891 710.925 419.831C711.07 419.825 711.241 419.801 711.378 419.801C713.093 419.801 714.128 420.227 714.399 420.715C714.72 421.291 714.414 422.692 713.208 424.564V424.564ZM701.601 425.816C700.193 425.816 699.051 426.957 699.051 428.365C699.051 429.773 700.193 430.915 701.601 430.915C703.009 430.915 704.151 429.773 704.151 428.365C704.151 426.957 703.009 425.816 701.601 425.816Z" fill="#0F2A70" fill-opacity="0.03"/>
<path d="M1375.69 162.318L1381.22 169.278C1381.22 169.278 1380.17 175.803 1376.34 178.847C1372.52 181.893 1359.35 181.022 1359.35 181.022C1359.35 181.022 1359.59 179.547 1360.05 177.489L1366.08 170.338C1366.33 170.039 1366.02 169.598 1365.66 169.733L1361.8 171.141C1362.73 168.485 1363.89 166.039 1365.29 164.928C1369.11 161.883 1375.69 162.318 1375.69 162.318V162.318ZM1399.92 150.478L1398.66 148.884C1398.31 148.445 1397.67 148.371 1397.23 148.721L1382.41 160.055L1380.23 157.316C1379.91 156.907 1379.27 156.984 1379.05 157.457L1377.43 160.934L1382.96 167.894L1386.71 167.1C1387.22 166.992 1387.44 166.386 1387.11 165.978L1384.94 163.242L1399.76 151.908C1400.2 151.559 1400.27 150.918 1399.92 150.478V150.478Z" fill="#0F2A70" fill-opacity="0.03"/>
<path d="M835.959 91.5747L834.106 100.268C834.106 100.268 828.398 103.602 823.617 102.589C818.836 101.577 811.127 90.8587 811.127 90.8587C811.127 90.8587 812.42 90.1072 814.3 89.152L823.654 89.2573C824.046 89.262 824.19 88.7433 823.851 88.545L820.315 86.47C822.95 85.4909 825.579 84.8337 827.323 85.203C832.104 86.2159 835.959 91.5747 835.959 91.5747V91.5747ZM860.506 102.736L860.93 100.745C861.047 100.195 860.697 99.6555 860.147 99.5393L841.975 95.3148L842.704 91.8932C842.813 91.3829 842.347 90.9372 841.842 91.0684L838.132 92.0346L836.279 100.728L839.275 103.115C839.683 103.44 840.289 103.222 840.398 102.713L841.127 99.2959L859.299 103.52C859.848 103.637 860.389 103.286 860.506 102.736V102.736Z" fill="#0F2A70" fill-opacity="0.03"/>
<path d="M1236.23 435.395L1228.17 471.619C1228.17 471.619 1204.73 489.701 1185.31 489.669C1165.89 489.641 1135.1 453.355 1135.1 453.355C1135.1 453.355 1140.41 449.275 1148.13 443.889L1186.23 436.468C1187.82 436.157 1188.44 433.968 1187.07 433.461L1172.79 428.149C1183.58 422.036 1194.33 417.211 1201.41 417.221C1220.83 417.254 1236.23 435.395 1236.23 435.395V435.395ZM1335.59 459.332L1337.43 451.037C1337.94 448.746 1336.54 446.886 1334.31 446.883L1260.52 445.268L1263.69 431.01C1264.16 428.884 1262.29 427.498 1260.22 428.444L1245.05 435.408L1237 471.632L1249.07 478.64C1250.71 479.595 1253.2 478.219 1253.67 476.097L1256.83 461.857L1330.62 463.473C1332.85 463.478 1335.08 461.625 1335.59 459.332V459.332Z" fill="#0F2A70" fill-opacity="0.03"/>
<path d="M949.777 371.197L955.306 378.157C955.306 378.157 954.248 384.682 950.425 387.726C946.602 390.772 933.429 389.901 933.429 389.901C933.429 389.901 933.671 388.426 934.13 386.368L940.161 379.218C940.414 378.918 940.106 378.477 939.737 378.612L935.887 380.02C936.808 377.364 937.973 374.918 939.368 373.807C943.19 370.762 949.777 371.197 949.777 371.197V371.197ZM974.004 359.357L972.738 357.764C972.388 357.324 971.749 357.25 971.31 357.6L956.49 368.934L954.314 366.195C953.989 365.786 953.349 365.863 953.129 366.336L951.514 369.813L957.043 376.773L960.791 375.979C961.301 375.872 961.519 375.265 961.195 374.857L959.022 372.121L973.842 360.788C974.281 360.438 974.354 359.798 974.004 359.357V359.357Z" fill="#0F2A70" fill-opacity="0.03"/>
<path d="M225.228 261.862L230.756 268.822C230.756 268.822 229.698 275.347 225.875 278.391C222.053 281.437 208.879 280.566 208.879 280.566C208.879 280.566 209.121 279.091 209.58 277.033L215.612 269.882C215.865 269.583 215.556 269.142 215.188 269.277L211.338 270.685C212.258 268.029 213.424 265.583 214.818 264.472C218.641 261.427 225.228 261.862 225.228 261.862V261.862ZM249.455 250.022L248.189 248.428C247.839 247.988 247.199 247.915 246.76 248.265L231.941 259.599L229.765 256.86C229.44 256.451 228.799 256.528 228.579 257.001L226.965 260.478L232.493 267.438L236.242 266.644C236.752 266.536 236.97 265.93 236.646 265.522L234.473 262.786L249.292 251.452C249.731 251.103 249.805 250.462 249.455 250.022V250.022Z" fill="#0F2A70" fill-opacity="0.03"/>
<path d="M516.828 329.39L525.705 329.845C525.705 329.845 529.9 334.953 529.655 339.834C529.412 344.716 520.047 354.022 520.047 354.022C520.047 354.022 519.101 352.865 517.861 351.159L516.486 341.907C516.428 341.519 515.893 341.458 515.751 341.824L514.261 345.643C512.878 343.197 511.813 340.705 511.902 338.924C512.146 334.043 516.828 329.39 516.828 329.39V329.39ZM523.967 303.387L521.935 303.282C521.373 303.254 520.896 303.685 520.868 304.246L519.57 322.858L516.076 322.679C515.555 322.652 515.189 323.183 515.398 323.661L516.939 327.171L525.815 327.627L527.699 324.29C527.955 323.836 527.644 323.272 527.124 323.245L523.635 323.066L524.933 304.454C524.961 303.894 524.529 303.415 523.967 303.387V303.387Z" fill="#0F2A70" fill-opacity="0.03"/>
<path d="M1020.92 449.046C1021.12 448.847 1029.31 441.683 1029.31 441.683L1027.91 441.086C1027.12 440.695 1027.32 440.169 1027.51 439.699C1027.71 439.094 1029.12 434.337 1029.12 434.337C1029.12 434.337 1025.32 435.133 1024.52 435.333C1023.92 435.524 1023.72 435.133 1023.52 434.735C1023.32 434.337 1022.33 432.153 1022.33 432.153C1022.33 432.153 1018.14 436.926 1017.94 437.118C1017.14 437.715 1016.34 437.118 1016.53 436.321C1016.53 435.524 1018.73 425.994 1018.73 425.994C1018.73 425.994 1016.34 427.381 1015.54 427.779C1014.94 428.177 1014.53 428.177 1014.14 427.381C1013.73 426.783 1010.73 421.022 1010.73 421.022C1010.73 421.022 1007.75 426.783 1007.35 427.381C1006.95 428.177 1006.55 428.177 1005.94 427.779C1005.15 427.381 1002.75 425.994 1002.75 425.994C1002.75 425.994 1004.95 435.524 1004.95 436.321C1005.15 437.118 1004.35 437.715 1003.55 437.118C1003.35 436.918 999.156 432.153 999.156 432.153C999.156 432.153 998.16 434.329 997.961 434.727C997.761 435.126 997.562 435.516 996.965 435.325C996.16 435.126 992.367 434.329 992.367 434.329C992.367 434.329 993.769 439.086 993.969 439.691C994.16 440.169 994.367 440.687 993.57 441.078L992.176 441.683C992.176 441.683 1000.35 448.847 1000.56 449.046C1000.96 449.444 1001.36 449.643 1000.96 450.839C1000.56 452.034 1000.16 453.635 1000.16 453.635C1000.16 453.635 1007.75 452.034 1008.55 451.835C1009.24 451.763 1010.01 452.034 1010.01 452.831C1010.01 453.627 1009.55 461.819 1009.55 461.819H1011.94C1011.94 461.819 1011.47 453.635 1011.47 452.831C1011.47 452.026 1012.23 451.763 1012.94 451.835C1013.74 452.034 1021.32 453.635 1021.32 453.635C1021.32 453.635 1020.92 452.034 1020.53 450.839C1020.13 449.643 1020.53 449.444 1020.92 449.046V449.046Z" fill="#0F2A70" fill-opacity="0.03"/>
<path d="M926.398 153.305C926.676 153.26 937.505 152.257 937.505 152.257L936.726 150.955C936.309 150.172 936.786 149.867 937.216 149.598C937.726 149.22 941.658 146.194 941.658 146.194C941.658 146.194 938.112 144.61 937.35 144.305C936.754 144.109 936.821 143.676 936.894 143.236C936.966 142.797 937.439 140.444 937.439 140.444C937.439 140.444 931.246 141.853 930.972 141.891C929.976 141.907 929.675 140.951 930.303 140.423C930.771 139.777 938.14 133.348 938.14 133.348C938.14 133.348 935.385 133.064 934.506 132.92C933.788 132.892 933.459 132.654 933.603 131.775C933.625 131.052 934.576 124.629 934.576 124.629C934.576 124.629 928.777 127.543 928.104 127.794C927.314 128.205 926.992 127.972 926.735 127.294C926.323 126.504 925.193 123.975 925.193 123.975C925.193 123.975 921.386 132.983 920.919 133.629C920.613 134.391 919.617 134.408 919.316 133.452C919.271 133.174 918.67 126.856 918.67 126.856C918.67 126.856 916.588 128.034 916.193 128.24C915.798 128.446 915.408 128.645 915.036 128.14C914.501 127.507 911.896 124.637 911.896 124.637C911.896 124.637 910.242 129.313 910.048 129.92C909.923 130.42 909.787 130.961 908.913 130.81L907.428 130.482C907.428 130.482 909.849 141.079 909.9 141.362C909.996 141.923 910.195 142.313 909.178 143.052C908.148 143.782 906.886 144.846 906.886 144.846C906.886 144.846 913.97 147.997 914.739 148.307C915.342 148.656 915.803 149.324 915.336 149.969C914.868 150.615 909.691 156.979 909.691 156.979L911.627 158.38C911.627 158.38 916.051 151.481 916.523 150.829C916.995 150.177 917.763 150.408 918.295 150.882C918.824 151.511 924.029 157.256 924.029 157.256C924.029 157.256 924.645 155.725 925.023 154.524C925.402 153.322 925.841 153.394 926.398 153.305V153.305Z" fill="#0F2A70" fill-opacity="0.03"/>
<path d="M643.255 492.072C644.305 491.633 685.898 477.408 685.898 477.408L681.597 473.036C679.215 470.354 680.796 468.706 682.232 467.242C683.875 465.272 696.442 449.654 696.442 449.654C696.442 449.654 681.002 446.802 677.716 446.324C675.187 446.123 675.04 444.358 674.906 442.563C674.771 440.768 674.391 431.079 674.391 431.079C674.391 431.079 651.396 442.491 650.358 442.901C646.461 443.912 644.367 440.444 646.333 437.771C647.554 434.793 670.387 402.543 670.387 402.543C670.387 402.543 659.29 404.047 655.699 404.314C652.852 404.887 651.332 404.263 651.063 400.674C650.459 397.817 648.08 371.687 648.08 371.687C648.08 371.687 628.072 388.638 625.666 390.26C622.954 392.628 621.464 392.017 619.809 389.599C617.439 386.887 610.591 378.026 610.591 378.026C610.591 378.026 604.212 417.022 602.991 420C602.515 423.284 598.618 424.296 596.524 420.827C596.084 419.777 587.707 395.537 587.707 395.537C587.707 395.537 580.647 402.141 579.291 403.324C577.935 404.508 576.592 405.662 574.649 404.03C571.944 402.051 558.976 393.255 558.976 393.255C558.976 393.255 556.932 413.188 556.749 415.757C556.732 417.837 556.713 420.091 553.133 420.328L546.989 420.453C546.989 420.453 566.594 459.769 567.063 460.832C567.973 462.944 569.128 464.288 565.836 468.157C562.484 472.001 558.539 477.377 558.539 477.377C558.539 477.377 589.371 483.025 592.687 483.515C595.391 484.311 597.837 486.497 596.616 489.475C595.395 492.453 581.111 522.363 581.111 522.363L590.054 526.03C590.054 526.03 600.867 494.732 602.101 491.724C603.334 488.716 606.569 488.894 609.112 490.25C611.787 492.217 637.711 509.839 637.711 509.839C637.711 509.839 638.675 503.241 639.016 498.162C639.358 493.083 641.154 492.95 643.255 492.072V492.072Z" fill="#0F2A70" fill-opacity="0.03"/>
<path d="M647.489 255.412C647.757 255.326 658.315 252.716 658.315 252.716L657.35 251.545C656.821 250.833 657.247 250.46 657.632 250.13C658.08 249.68 661.516 246.1 661.516 246.1C661.516 246.1 657.773 245.065 656.974 244.876C656.355 244.772 656.357 244.333 656.363 243.888C656.369 243.443 656.485 241.046 656.485 241.046C656.485 241.046 650.571 243.364 650.307 243.442C649.324 243.608 648.884 242.707 649.426 242.091C649.792 241.383 656.118 233.924 656.118 233.924C656.118 233.924 653.351 234.056 652.46 234.044C651.746 234.124 651.385 233.937 651.397 233.047C651.31 232.329 651.291 225.836 651.291 225.836C651.291 225.836 645.993 229.584 645.365 229.932C644.645 230.457 644.291 230.274 643.936 229.643C643.411 228.923 641.916 226.591 641.916 226.591C641.916 226.591 639.497 236.067 639.132 236.775C638.943 237.575 637.961 237.74 637.52 236.84C637.435 236.572 635.897 230.415 635.897 230.415C635.897 230.415 634.014 231.891 633.654 232.153C633.294 232.416 632.938 232.672 632.495 232.227C631.871 231.681 628.866 229.233 628.866 229.233C628.866 229.233 627.93 234.103 627.829 234.733C627.78 235.245 627.726 235.8 626.839 235.782L625.322 235.68C625.322 235.68 629.3 245.796 629.393 246.068C629.571 246.608 629.826 246.964 628.931 247.847C628.022 248.723 626.933 249.963 626.933 249.963C626.933 249.963 634.408 252.02 635.214 252.213C635.863 252.467 636.419 253.059 636.053 253.767C635.687 254.475 631.519 261.541 631.519 261.541L633.643 262.638C633.643 262.638 636.986 255.154 637.356 254.439C637.725 253.724 638.518 253.838 639.115 254.227C639.732 254.769 645.737 259.673 645.737 259.673C645.737 259.673 646.118 258.067 646.313 256.822C646.507 255.577 646.952 255.583 647.489 255.412V255.412Z" fill="#0F2A70" fill-opacity="0.03"/>
<path d="M1311.4 76.9799C1311.6 76.7807 1319.78 69.6174 1319.78 69.6174L1318.39 69.0197C1317.59 68.6293 1317.8 68.1034 1317.99 67.6333C1318.18 67.0277 1319.59 62.2708 1319.59 62.2708C1319.59 62.2708 1315.79 63.0676 1314.99 63.2668C1314.39 63.458 1314.19 63.0676 1313.99 62.6692C1313.8 62.2708 1312.8 60.0875 1312.8 60.0875C1312.8 60.0875 1308.61 64.8604 1308.41 65.0516C1307.61 65.6492 1306.81 65.0516 1307.01 64.2548C1307.01 63.458 1309.21 53.9282 1309.21 53.9282C1309.21 53.9282 1306.81 55.3146 1306.01 55.713C1305.41 56.1114 1305.01 56.1114 1304.61 55.3146C1304.2 54.717 1301.21 48.9561 1301.21 48.9561C1301.21 48.9561 1298.22 54.717 1297.82 55.3146C1297.42 56.1114 1297.02 56.1114 1296.42 55.713C1295.62 55.3146 1293.22 53.9282 1293.22 53.9282C1293.22 53.9282 1295.42 63.458 1295.42 64.2548C1295.62 65.0516 1294.82 65.6492 1294.02 65.0516C1293.82 64.8524 1289.63 60.0875 1289.63 60.0875C1289.63 60.0875 1288.63 62.2628 1288.43 62.6612C1288.23 63.0596 1288.03 63.45 1287.44 63.2588C1286.63 63.0596 1282.84 62.2628 1282.84 62.2628C1282.84 62.2628 1284.24 67.0198 1284.44 67.6253C1284.63 68.1034 1284.84 68.6213 1284.04 69.0118L1282.65 69.6174C1282.65 69.6174 1290.82 76.7807 1291.03 76.9799C1291.44 77.3783 1291.83 77.5775 1291.44 78.7727C1291.03 79.9679 1290.63 81.5695 1290.63 81.5695C1290.63 81.5695 1298.22 79.9679 1299.02 79.7687C1299.72 79.697 1300.48 79.9679 1300.48 80.7647C1300.48 81.5615 1300.02 89.7528 1300.02 89.7528H1302.41C1302.41 89.7528 1301.95 81.5695 1301.95 80.7647C1301.95 79.96 1302.7 79.697 1303.41 79.7687C1304.21 79.9679 1311.8 81.5695 1311.8 81.5695C1311.8 81.5695 1311.4 79.9679 1311 78.7727C1310.6 77.5775 1311 77.3783 1311.4 76.9799V76.9799Z" fill="#0F2A70" fill-opacity="0.03"/>
<path d="M1033.38 312.911H992.992V228.361C997.678 225.797 1001.28 220.84 1002.95 214.744L1033.24 202.048C1035.16 201.242 1036.2 198.64 1035.55 196.237L1033.22 187.534C1032.57 185.13 1030.49 183.836 1028.57 184.642L1001.51 195.981C998.339 189.094 992.462 184.401 985.648 184.401C975.51 184.401 967.29 194.676 967.29 207.349C967.29 208.333 967.425 209.274 967.522 210.226L938.059 222.575C936.136 223.381 935.101 225.983 935.745 228.387L938.079 237.09C938.724 239.494 940.805 240.788 942.729 239.982L975.326 226.319C976.26 227.113 977.261 227.787 978.307 228.361V326.68C978.307 329.215 979.95 331.269 981.979 331.269H1033.38C1035.41 331.269 1037.05 329.215 1037.05 326.68V317.5C1037.05 314.965 1035.41 312.911 1033.38 312.911ZM1059.08 271.604C1059.08 266.963 1059.39 269.1 1039.56 219.538C1035.51 209.415 1023.91 209.395 1019.85 219.538C999.863 269.524 1000.34 267.109 1000.34 271.604H1000.34C1000.34 284.277 1013.49 294.552 1029.71 294.552C1045.93 294.552 1059.08 284.277 1059.08 271.604H1059.08ZM1013.19 267.014L1029.71 225.708L1046.23 267.014H1013.19ZM951.44 256.255C947.389 246.132 935.791 246.112 931.734 256.255C911.742 306.241 912.219 303.826 912.219 308.321H912.214C912.214 320.994 925.366 331.269 941.588 331.269C957.81 331.269 970.962 320.994 970.962 308.321H970.957C970.957 303.68 971.265 305.817 951.44 256.255ZM925.065 303.731L941.588 262.425L958.111 303.731H925.065Z" fill="#0F2A70" fill-opacity="0.03"/>
<path d="M808.372 264.546C804.882 265.048 801.504 266.466 798.635 268.833L804.803 275C807.018 272.148 808.253 268.53 808.372 264.546V264.546ZM811.217 281.414L823.799 268.833C820.42 266.044 816.34 264.57 812.205 264.363C812.109 269.454 810.492 274.108 807.528 277.725L811.217 281.414ZM795.926 271.542C793.56 274.41 792.141 277.789 791.639 281.279C795.623 281.159 799.249 279.924 802.093 277.709L795.926 271.542ZM817.615 287.813C821.225 284.857 825.878 283.239 830.978 283.136C830.771 279 829.297 274.92 826.508 271.542L813.926 284.124L817.615 287.813V287.813ZM811.217 286.833L798.635 299.414C802.014 302.195 806.093 303.677 810.229 303.884C810.332 298.785 811.95 294.132 814.906 290.522L811.217 286.833ZM826.508 296.705C828.874 293.837 830.293 290.458 830.795 286.968C826.803 287.096 823.185 288.331 820.34 290.538L826.508 296.705ZM804.819 280.434C801.201 283.398 796.548 285.024 791.456 285.112C791.663 289.247 793.137 293.327 795.926 296.705L808.508 284.124L804.819 280.434ZM814.062 303.701C817.552 303.199 820.93 301.781 823.799 299.414L817.631 293.247C815.424 296.092 814.189 299.717 814.062 303.701Z" fill="#0F2A70" fill-opacity="0.03"/>
<path d="M305.757 161.738C302.267 162.24 298.888 163.659 296.02 166.025L302.187 172.192C304.402 169.34 305.637 165.722 305.757 161.738V161.738ZM308.602 178.607L321.183 166.025C317.805 163.236 313.725 161.762 309.59 161.555C309.494 166.647 307.877 171.3 304.912 174.917L308.602 178.607ZM293.311 168.734C290.944 171.603 289.526 174.981 289.024 178.471C293.008 178.352 296.634 177.117 299.478 174.902L293.311 168.734ZM315 185.005C318.61 182.049 323.263 180.431 328.363 180.328C328.155 176.192 326.681 172.113 323.892 168.734L311.311 181.316L315 185.005V185.005ZM308.602 184.025L296.02 196.607C299.398 199.387 303.478 200.87 307.614 201.077C307.717 195.977 309.335 191.324 312.291 187.714L308.602 184.025ZM323.892 193.897C326.259 191.029 327.677 187.65 328.179 184.16C324.187 184.288 320.57 185.523 317.725 187.73L323.892 193.897ZM302.203 177.627C298.586 180.591 293.932 182.216 288.841 182.304C289.048 186.439 290.522 190.519 293.311 193.897L305.892 181.316L302.203 177.627ZM311.446 200.893C314.936 200.391 318.315 198.973 321.183 196.607L315.016 190.439C312.809 193.284 311.574 196.909 311.446 200.893Z" fill="#0F2A70" fill-opacity="0.03"/>
<path d="M467.312 496.271C463.822 496.773 460.443 498.191 457.575 500.558L463.742 506.725C465.957 503.873 467.192 500.255 467.312 496.271V496.271ZM470.157 513.14L482.738 500.558C479.36 497.769 475.28 496.295 471.145 496.088C471.049 501.18 469.431 505.833 466.467 509.45L470.157 513.14ZM454.866 503.267C452.499 506.136 451.081 509.514 450.579 513.004C454.563 512.885 458.188 511.65 461.033 509.434L454.866 503.267ZM476.555 519.538C480.164 516.582 484.818 514.964 489.917 514.861C489.71 510.725 488.236 506.646 485.447 503.267L472.866 515.849L476.555 519.538V519.538ZM470.157 518.558L457.575 531.14C460.953 533.92 465.033 535.403 469.168 535.61C469.272 530.51 470.89 525.857 473.846 522.247L470.157 518.558ZM485.447 528.43C487.814 525.562 489.232 522.183 489.734 518.693C485.742 518.821 482.125 520.056 479.28 522.263L485.447 528.43ZM463.758 512.16C460.141 515.124 455.487 516.749 450.396 516.837C450.603 520.972 452.077 525.052 454.866 528.43L467.447 515.849L463.758 512.16ZM473.001 535.426C476.491 534.924 479.87 533.506 482.738 531.14L476.571 524.972C474.364 527.817 473.129 531.442 473.001 535.426Z" fill="#0F2A70" fill-opacity="0.03"/>
<path d="M393.878 344.507C390.388 345.009 387.009 346.428 384.141 348.794L390.308 354.962C392.523 352.109 393.758 348.492 393.878 344.507V344.507ZM396.722 361.376L409.304 348.794C405.926 346.005 401.846 344.531 397.71 344.324C397.615 349.416 395.997 354.069 393.033 357.687L396.722 361.376ZM381.432 351.503C379.065 354.372 377.647 357.75 377.145 361.241C381.129 361.121 384.754 359.886 387.599 357.671L381.432 351.503ZM403.121 367.774C406.73 364.818 411.384 363.201 416.483 363.097C416.276 358.962 414.802 354.882 412.013 351.503L399.432 364.085L403.121 367.774V367.774ZM396.722 366.794L384.141 379.376C387.519 382.157 391.599 383.639 395.734 383.846C395.838 378.746 397.456 374.093 400.412 370.484L396.722 366.794ZM412.013 376.667C414.38 373.798 415.798 370.42 416.3 366.93C412.308 367.057 408.691 368.292 405.846 370.499L412.013 376.667ZM390.324 360.396C386.707 363.36 382.053 364.986 376.962 365.073C377.169 369.209 378.643 373.288 381.432 376.667L394.013 364.085L390.324 360.396ZM399.567 383.663C403.057 383.161 406.436 381.742 409.304 379.376L403.137 373.209C400.93 376.053 399.695 379.679 399.567 383.663Z" fill="#0F2A70" fill-opacity="0.03"/>
<path d="M844.528 380.906C831.559 382.772 819.004 388.043 808.344 396.837L831.262 419.755C839.494 409.155 844.084 395.712 844.528 380.906V380.906ZM855.099 443.592L901.854 396.837C889.299 386.473 874.138 380.995 858.771 380.225C858.415 399.146 852.404 416.439 841.389 429.882L855.099 443.592ZM798.276 406.904C789.482 417.564 784.211 430.119 782.346 443.088C797.151 442.644 810.624 438.055 821.195 429.823L798.276 406.904ZM878.876 467.369C892.29 456.384 909.582 450.373 928.533 449.988C927.763 434.62 922.285 419.459 911.921 406.904L865.166 453.659L878.876 467.369V467.369ZM855.099 463.727L808.344 510.482C820.899 520.816 836.059 526.324 851.427 527.093C851.812 508.143 857.823 490.85 868.809 477.437L855.099 463.727ZM911.921 500.414C920.716 489.755 925.986 477.2 927.852 464.23C913.017 464.704 899.574 469.294 889.003 477.496L911.921 500.414ZM831.322 439.95C817.878 450.965 800.586 457.005 781.665 457.331C782.435 472.699 787.913 487.86 798.276 500.414L845.031 453.659L831.322 439.95ZM865.67 526.412C878.639 524.547 891.194 519.276 901.854 510.482L878.935 487.563C870.733 498.134 866.144 511.607 865.67 526.412Z" fill="#0F2A70" fill-opacity="0.03"/>
<path d="M623.971 50.7712C620.481 51.2731 617.103 52.6915 614.234 55.058L620.402 61.2253C622.617 58.3727 623.852 54.7552 623.971 50.7712V50.7712ZM626.816 67.6396L639.397 55.058C636.019 52.2692 631.939 50.7951 627.804 50.5879C627.708 55.6795 626.091 60.3329 623.127 63.9504L626.816 67.6396ZM611.525 57.7672C609.159 60.6357 607.74 64.0141 607.238 67.5042C611.222 67.3847 614.848 66.1496 617.692 63.9345L611.525 57.7672ZM633.214 74.038C636.824 71.0819 641.477 69.4643 646.577 69.3607C646.37 65.2253 644.895 61.1456 642.107 57.7672L629.525 70.3488L633.214 74.038V74.038ZM626.816 73.0579L614.234 85.6396C617.613 88.4205 621.692 89.9025 625.828 90.1097C625.931 85.0101 627.549 80.3567 630.505 76.7472L626.816 73.0579ZM642.107 82.9304C644.473 80.0619 645.891 76.6834 646.393 73.1934C642.401 73.3209 638.784 74.556 635.939 76.7631L642.107 82.9304ZM620.417 66.6596C616.8 69.6237 612.147 71.2492 607.055 71.3368C607.262 75.4723 608.736 79.552 611.525 82.9304L624.107 70.3488L620.417 66.6596ZM629.66 89.9264C633.15 89.4244 636.529 88.0061 639.397 85.6396L633.23 79.4723C631.023 82.3169 629.788 85.9424 629.66 89.9264Z" fill="#0F2A70" fill-opacity="0.03"/>
<path d="M149.098 346.139C145.608 346.641 142.229 348.06 139.361 350.426L145.528 356.593C147.743 353.741 148.978 350.123 149.098 346.139V346.139ZM151.942 363.008L164.524 350.426C161.145 347.637 157.066 346.163 152.93 345.956C152.835 351.048 151.217 355.701 148.253 359.319L151.942 363.008ZM136.651 353.135C134.285 356.004 132.867 359.382 132.365 362.872C136.349 362.753 139.974 361.518 142.819 359.303L136.651 353.135ZM158.341 369.406C161.95 366.45 166.603 364.832 171.703 364.729C171.496 360.593 170.022 356.514 167.233 353.135L154.651 365.717L158.341 369.406V369.406ZM151.942 368.426L139.361 381.008C142.739 383.789 146.819 385.271 150.954 385.478C151.058 380.378 152.675 375.725 155.631 372.115L151.942 368.426ZM167.233 378.299C169.6 375.43 171.018 372.052 171.52 368.562C167.528 368.689 163.91 369.924 161.066 372.131L167.233 378.299ZM145.544 362.028C141.926 364.992 137.273 366.617 132.181 366.705C132.388 370.84 133.863 374.92 136.651 378.299L149.233 365.717L145.544 362.028ZM154.787 385.295C158.277 384.793 161.655 383.374 164.524 381.008L158.357 374.84C156.149 377.685 154.914 381.311 154.787 385.295Z" fill="#0F2A70" fill-opacity="0.03"/>
<path d="M1237.81 347.258L1219.17 334.828C1218.53 334.436 1217.85 334.433 1217.21 334.828L1198.57 347.258C1198.09 347.577 1197.79 348.146 1197.79 348.715V361.145C1197.79 361.715 1198.09 362.284 1198.57 362.602L1217.21 375.034C1217.85 375.426 1218.53 375.43 1219.17 375.034L1237.81 362.602C1238.29 362.284 1238.59 361.715 1238.59 361.145V348.715C1238.59 348.146 1238.29 347.577 1237.81 347.258V347.258ZM1219.94 339.563L1233.67 348.715L1227.55 352.813L1219.94 347.736V339.563ZM1216.44 339.563V347.736L1208.83 352.813L1202.71 348.715L1216.44 339.563ZM1201.3 351.994L1205.69 354.93L1201.3 357.867V351.994ZM1216.44 370.297L1202.71 361.145L1208.83 357.048L1216.44 362.124V370.297ZM1218.19 359.074L1212 354.93L1218.19 350.787L1224.38 354.93L1218.19 359.074ZM1219.94 370.297V362.124L1227.55 357.048L1233.67 361.145L1219.94 370.297ZM1235.08 357.867L1230.69 354.93L1235.08 351.994V357.867Z" fill="#0F2A70" fill-opacity="0.03"/>
<path d="M1094.21 316.253L1075.56 303.823C1074.93 303.431 1074.25 303.427 1073.61 303.823L1054.96 316.253C1054.48 316.571 1054.19 317.141 1054.19 317.71V330.14C1054.19 330.709 1054.48 331.278 1054.96 331.597L1073.61 344.029C1074.24 344.421 1074.92 344.424 1075.56 344.029L1094.21 331.597C1094.69 331.278 1094.98 330.709 1094.98 330.14V317.71C1094.98 317.141 1094.69 316.571 1094.21 316.253V316.253ZM1076.34 308.558L1090.07 317.71L1083.94 321.808L1076.34 316.731V308.558ZM1072.83 308.558V316.731L1065.23 321.808L1059.1 317.71L1072.83 308.558ZM1057.69 320.988L1062.09 323.925L1057.69 326.862V320.988ZM1072.83 339.292L1059.1 330.14L1065.23 326.042L1072.83 331.119V339.292ZM1074.59 328.068L1068.39 323.925L1074.59 319.781L1080.78 323.925L1074.59 328.068ZM1076.34 339.292V331.119L1083.94 326.042L1090.07 330.14L1076.34 339.292ZM1091.48 326.862L1087.08 323.925L1091.48 320.988V326.862Z" fill="#0F2A70" fill-opacity="0.03"/>
<path d="M1418.95 547.978L1400.31 535.548C1399.67 535.156 1398.99 535.153 1398.35 535.548L1379.7 547.978C1379.22 548.297 1378.93 548.866 1378.93 549.435V561.865C1378.93 562.434 1379.22 563.003 1379.7 563.322L1398.35 575.754C1398.98 576.146 1399.66 576.149 1400.31 575.754L1418.95 563.322C1419.43 563.004 1419.73 562.434 1419.73 561.865V549.435C1419.73 548.866 1419.43 548.297 1418.95 547.978V547.978ZM1401.08 540.283L1414.81 549.435L1408.68 553.533L1401.08 548.456V540.283ZM1397.57 540.283V548.456L1389.97 553.533L1383.85 549.435L1397.57 540.283ZM1382.43 552.713L1386.83 555.65L1382.43 558.587V552.713ZM1397.57 571.017L1383.85 561.865L1389.97 557.767L1397.57 562.844V571.017ZM1399.33 559.794L1393.13 555.65L1399.33 551.507L1405.52 555.65L1399.33 559.794ZM1401.08 571.017V562.844L1408.68 557.767L1414.81 561.865L1401.08 571.017ZM1416.22 558.587L1411.83 555.65L1416.22 552.713V558.587Z" fill="#0F2A70" fill-opacity="0.03"/>
<path d="M791.459 166.311L778.023 86.7654C777.479 84.1308 775.812 82.3418 773.191 81.634L694.597 63.4425C692.582 62.9759 690.359 63.6051 688.868 65.0096L656.289 95.6863C654.797 97.091 654.036 99.2713 654.381 101.311L667.812 180.861C668.356 183.495 670.023 185.284 672.644 185.992L751.243 204.179C753.258 204.646 755.48 204.017 756.972 202.612L789.551 171.936C791.042 170.531 791.804 168.35 791.459 166.311ZM767.523 100.48L777.415 159.047L751.561 153.11L746.101 120.651L767.523 100.48ZM758.87 91.2915L737.449 111.462L705.377 104.062L701.004 77.8979L758.87 91.2915ZM688.928 82.2892L692.074 101.053L673.534 96.7848L688.928 82.2892ZM678.317 167.141L668.425 108.575L694.279 114.512L699.738 146.971L678.317 167.141ZM712.06 144.037L707.637 117.581L733.78 123.585L738.202 150.041L712.06 144.037ZM686.969 176.33L708.391 156.16L740.463 163.56L744.836 189.724L686.969 176.33ZM756.912 185.333L753.765 166.569L772.306 170.837L756.912 185.333Z" fill="#0F2A70" fill-opacity="0.03"/>
<path d="M325.905 91.2269L323.864 68.911C323.769 68.1698 323.345 67.6391 322.634 67.3876L301.25 60.688C300.702 60.5162 300.073 60.6435 299.63 61.001L289.959 68.8091C289.516 69.1666 289.259 69.7544 289.311 70.3266L291.35 92.6436C291.445 93.3848 291.869 93.9155 292.58 94.167L313.965 100.865C314.514 101.037 315.143 100.91 315.585 100.553L325.257 92.7444C325.7 92.3869 325.957 91.7991 325.905 91.2269V91.2269ZM320.666 72.4878L322.168 88.9182L315.133 86.7273L314.307 77.6217L320.666 72.4878ZM318.464 69.7598L312.104 74.8938L303.378 72.1663L302.719 64.8272L318.464 69.7598ZM299.282 65.7882L299.757 71.0518L294.712 69.4778L299.282 65.7882ZM294.55 89.0657L293.048 72.6353L300.083 74.8262L300.909 83.9318L294.55 89.0657ZM304.384 83.3795L303.718 75.9585L310.832 78.174L311.498 85.595L304.384 83.3795ZM296.752 91.7937L303.111 86.6597L311.838 89.3871L312.496 96.7263L296.752 91.7937ZM315.934 95.7653L315.459 90.5017L320.504 92.0757L315.934 95.7653Z" fill="#0F2A70" fill-opacity="0.03"/>
<path d="M115.194 449.382L72.1821 455.448C70.7562 455.702 69.7688 456.573 69.3494 457.973L58.4056 500.01C58.1248 501.087 58.4309 502.293 59.165 503.116L75.1989 521.101C75.9331 521.925 77.0955 522.367 78.1985 522.211L121.213 516.148C122.639 515.893 123.626 515.022 124.045 513.622L134.987 471.583C135.268 470.506 134.962 469.3 134.227 468.477L118.194 450.492C117.459 449.668 116.297 449.226 115.194 449.382V449.382ZM79.4102 461.301L111.078 456.835L107.504 470.664L89.9528 473.126L79.4102 461.301ZM74.3375 465.823L84.8801 477.649L80.4268 494.803L66.28 496.773L74.3375 465.823ZM68.4665 503.337L78.6122 501.919L76.043 511.836L68.4665 503.337ZM113.982 510.292L82.314 514.758L85.8889 500.93L103.44 498.467L113.982 510.292ZM102.041 491.792L87.7365 493.784L91.3516 479.801L105.656 477.809L102.041 491.792ZM119.055 505.77L108.512 493.944L112.966 476.79L127.112 474.82L119.055 505.77ZM124.926 468.256L114.78 469.674L117.349 459.757L124.926 468.256Z" fill="#0F2A70" fill-opacity="0.03"/>
<path d="M1146.88 156.276L1138.15 163.64C1137.49 164.198 1137.07 164.991 1136.99 165.846C1136.91 166.7 1137.18 167.546 1137.72 168.197L1143.93 175.558L1136.44 181.869L1130.24 174.508C1129.69 173.857 1128.9 173.455 1128.05 173.389C1127.19 173.324 1126.34 173.6 1125.67 174.158L1113.2 184.677C1112.54 185.235 1112.12 186.029 1112.04 186.883C1111.96 187.738 1112.22 188.584 1112.77 189.235L1118.98 196.595L1111.51 202.894L1105.3 195.533C1104.75 194.882 1103.96 194.479 1103.11 194.414C1102.25 194.348 1101.4 194.625 1100.74 195.183L1091.99 202.559C1091.33 203.117 1090.91 203.911 1090.83 204.765C1090.75 205.62 1091.01 206.466 1091.56 207.116L1114.32 234.107L1128.44 230.599C1134.69 238.01 1140.48 245.37 1147.06 256.872L1191.11 219.738C1180.88 211.305 1174.53 204.257 1168.36 196.939L1174.2 183.616L1151.45 156.626C1150.9 155.976 1150.11 155.573 1149.25 155.507C1148.4 155.442 1147.55 155.718 1146.88 156.276V156.276ZM1161.66 219.376L1151.68 227.791L1143.41 217.976C1142.31 216.675 1141.78 214.983 1141.94 213.274C1142.1 211.565 1142.94 209.977 1144.26 208.861C1145.58 207.746 1147.29 207.192 1149 207.324C1150.71 207.455 1152.29 208.26 1153.39 209.561L1161.66 219.376ZM1200.67 220.071L1145.78 266.354C1145.11 266.912 1144.7 267.705 1144.62 268.56C1144.54 269.415 1144.8 270.26 1145.35 270.911L1149.49 275.819C1150.03 276.469 1150.82 276.872 1151.68 276.937C1152.54 277.003 1153.39 276.726 1154.05 276.168L1208.95 229.886C1209.61 229.328 1210.02 228.534 1210.1 227.68C1210.18 226.825 1209.92 225.979 1209.37 225.328L1205.23 220.421C1204.69 219.77 1203.9 219.368 1203.04 219.302C1202.18 219.237 1201.33 219.513 1200.67 220.071Z" fill="#0F2A70" fill-opacity="0.03"/>
<path d="M154.237 65.6208L150.801 68.4678C150.54 68.6835 150.376 68.9938 150.345 69.3305C150.313 69.6671 150.417 70.0025 150.632 70.2629L153.073 73.208L150.128 75.6482L147.687 72.7032C147.472 72.4428 147.161 72.2788 146.825 72.2472C146.488 72.2157 146.153 72.3191 145.892 72.5349L140.984 76.602C140.724 76.8177 140.56 77.128 140.528 77.4647C140.496 77.8013 140.6 78.1367 140.816 78.3971L143.256 81.3422L140.317 83.7773L137.877 80.8323C137.661 80.5719 137.351 80.4079 137.014 80.3764C136.677 80.3448 136.342 80.4483 136.082 80.664L132.64 83.516C132.379 83.7318 132.215 84.0421 132.184 84.3788C132.152 84.7154 132.256 85.0508 132.471 85.3112L141.419 96.1097L146.972 94.8194C149.429 97.7847 151.708 100.726 154.296 105.308L171.624 90.95C167.604 87.5552 165.105 84.7326 162.679 81.8047L164.979 76.5876L156.032 65.7891C155.816 65.5287 155.506 65.3647 155.169 65.3332C154.832 65.3016 154.497 65.4051 154.237 65.6208V65.6208ZM160.043 90.612L156.116 93.8656L152.863 89.9389C152.431 89.4182 152.224 88.7474 152.287 88.0741C152.35 87.4008 152.678 86.7801 153.199 86.3487C153.72 85.9172 154.391 85.7103 155.064 85.7734C155.737 85.8365 156.358 86.1645 156.789 86.6852L160.043 90.612ZM175.386 91.1447L153.788 109.04C153.528 109.256 153.364 109.566 153.333 109.903C153.301 110.239 153.404 110.575 153.62 110.835L155.247 112.798C155.463 113.059 155.773 113.223 156.11 113.254C156.446 113.286 156.782 113.182 157.042 112.967L178.639 95.0714C178.9 94.8557 179.064 94.5454 179.095 94.2087C179.127 93.8721 179.023 93.5367 178.808 93.2763L177.181 91.313C176.965 91.0526 176.655 90.8886 176.318 90.857C175.981 90.8255 175.646 90.929 175.386 91.1447Z" fill="#0F2A70" fill-opacity="0.03"/>
<path d="M375.279 259.467H370.817C370.478 259.467 370.154 259.601 369.915 259.84C369.676 260.08 369.542 260.404 369.542 260.742V264.567H365.717V260.742C365.717 260.404 365.583 260.08 365.344 259.84C365.104 259.601 364.78 259.467 364.442 259.467H358.068C357.729 259.467 357.405 259.601 357.166 259.84C356.927 260.08 356.793 260.404 356.793 260.742V264.567H352.976V260.742C352.976 260.404 352.842 260.08 352.603 259.84C352.363 259.601 352.039 259.467 351.701 259.467H347.231C346.893 259.467 346.569 259.601 346.329 259.84C346.09 260.08 345.956 260.404 345.956 260.742V274.766L351.056 277.316C351.056 281.167 350.933 284.885 350.003 290.065H372.507C371.577 284.885 371.454 281.118 371.454 277.316L376.554 274.766V260.742C376.554 260.404 376.419 260.08 376.18 259.84C375.941 259.601 375.617 259.467 375.279 259.467V259.467ZM363.805 282.415H358.705V277.316C358.705 276.639 358.974 275.991 359.452 275.513C359.93 275.034 360.579 274.766 361.255 274.766C361.931 274.766 362.58 275.034 363.058 275.513C363.536 275.991 363.805 276.639 363.805 277.316V282.415ZM375.279 292.614H347.231C346.893 292.614 346.569 292.749 346.329 292.988C346.09 293.227 345.956 293.551 345.956 293.889V296.439C345.956 296.777 346.09 297.101 346.329 297.341C346.569 297.58 346.893 297.714 347.231 297.714H375.279C375.617 297.714 375.941 297.58 376.18 297.341C376.419 297.101 376.554 296.777 376.554 296.439V293.889C376.554 293.551 376.419 293.227 376.18 292.988C375.941 292.749 375.617 292.614 375.279 292.614Z" fill="#0F2A70" fill-opacity="0.03"/>
<path d="M343.124 375.398L326.584 389.006C325.331 390.037 324.457 391.424 324.154 392.862C323.851 394.3 324.144 395.672 324.969 396.674L334.3 408.016L320.123 419.68L310.792 408.338C309.967 407.335 308.678 406.783 307.208 406.803C305.739 406.824 304.209 407.414 302.956 408.445L279.327 427.885C278.074 428.916 277.2 430.303 276.897 431.741C276.594 433.18 276.887 434.551 277.712 435.554L287.043 446.895L272.895 458.535L263.564 447.193C262.739 446.19 261.45 445.638 259.981 445.658C258.511 445.679 256.982 446.269 255.728 447.3L239.159 460.932C237.905 461.964 237.031 463.351 236.728 464.789C236.425 466.227 236.718 467.598 237.543 468.601L271.757 510.187L296.881 502.197C306.276 513.616 314.893 525.018 324.082 543.212L407.497 474.586C391.415 462.063 381.769 451.265 372.492 439.99L385.174 416.877L350.96 375.291C350.136 374.288 348.847 373.736 347.377 373.756C345.907 373.776 344.378 374.367 343.124 375.398V375.398ZM356.579 478.44L337.676 493.991L325.235 478.869C323.585 476.864 322.999 474.121 323.604 471.245C324.21 468.369 325.959 465.594 328.466 463.532C330.972 461.47 334.032 460.289 336.971 460.248C339.91 460.208 342.488 461.312 344.138 463.317L356.579 478.44ZM423.993 473.693L320.028 559.227C318.774 560.258 317.9 561.646 317.597 563.084C317.294 564.522 317.587 565.893 318.412 566.896L324.633 574.457C325.458 575.46 326.747 576.012 328.216 575.991C329.686 575.971 331.216 575.381 332.469 574.35L436.435 488.815C437.688 487.784 438.562 486.397 438.865 484.959C439.168 483.521 438.875 482.149 438.05 481.147L431.829 473.585C431.004 472.583 429.715 472.031 428.246 472.051C426.776 472.071 425.247 472.662 423.993 473.693Z" fill="#0F2A70" fill-opacity="0.03"/>
<path d="M809.356 370.434H804.893C804.555 370.434 804.231 370.568 803.992 370.807C803.753 371.047 803.619 371.371 803.619 371.709V375.534H799.794V371.709C799.794 371.371 799.66 371.047 799.42 370.807C799.181 370.568 798.857 370.434 798.519 370.434H792.144C791.806 370.434 791.482 370.568 791.243 370.807C791.004 371.047 790.87 371.371 790.87 371.709V375.534H787.053V371.709C787.053 371.371 786.919 371.047 786.679 370.807C786.44 370.568 786.116 370.434 785.778 370.434H781.308C780.97 370.434 780.645 370.568 780.406 370.807C780.167 371.047 780.033 371.371 780.033 371.709V385.733L785.133 388.283C785.133 392.134 785.01 395.852 784.08 401.032H806.583C805.654 395.852 805.531 392.085 805.531 388.283L810.63 385.733V371.709C810.63 371.371 810.496 371.047 810.257 370.807C810.018 370.568 809.694 370.434 809.356 370.434V370.434ZM797.882 393.382H792.782V388.283C792.782 387.606 793.051 386.958 793.529 386.48C794.007 386.001 794.655 385.733 795.332 385.733C796.008 385.733 796.657 386.001 797.135 386.48C797.613 386.958 797.882 387.606 797.882 388.283V393.382ZM809.356 403.581H781.308C780.97 403.581 780.645 403.716 780.406 403.955C780.167 404.194 780.033 404.518 780.033 404.856V407.406C780.033 407.744 780.167 408.068 780.406 408.308C780.645 408.547 780.97 408.681 781.308 408.681H809.356C809.694 408.681 810.018 408.547 810.257 408.308C810.496 408.068 810.63 407.744 810.63 407.406V404.856C810.63 404.518 810.496 404.194 810.257 403.955C810.018 403.716 809.694 403.581 809.356 403.581Z" fill="#0F2A70" fill-opacity="0.03"/>
<path d="M1171.63 70.1703H1167.17C1166.83 70.1703 1166.51 70.3047 1166.27 70.5438C1166.03 70.7828 1165.89 71.1071 1165.89 71.4452V75.2699H1162.07V71.4452C1162.07 71.1071 1161.93 70.7828 1161.7 70.5438C1161.46 70.3047 1161.13 70.1703 1160.79 70.1703H1154.42C1154.08 70.1703 1153.76 70.3047 1153.52 70.5438C1153.28 70.7828 1153.14 71.1071 1153.14 71.4452V75.2699H1149.33V71.4452C1149.33 71.1071 1149.19 70.7828 1148.95 70.5438C1148.72 70.3047 1148.39 70.1703 1148.05 70.1703H1143.58C1143.24 70.1703 1142.92 70.3047 1142.68 70.5438C1142.44 70.7828 1142.31 71.1071 1142.31 71.4452V85.4691L1147.41 88.0189C1147.41 91.8699 1147.28 95.5886 1146.35 100.768H1168.86C1167.93 95.5886 1167.81 91.8213 1167.81 88.0189L1172.91 85.4691V71.4452C1172.91 71.1071 1172.77 70.7828 1172.53 70.5438C1172.29 70.3047 1171.97 70.1703 1171.63 70.1703V70.1703ZM1160.16 93.1185H1155.06V88.0189C1155.06 87.3427 1155.33 86.6941 1155.8 86.2159C1156.28 85.7378 1156.93 85.4691 1157.61 85.4691C1158.28 85.4691 1158.93 85.7378 1159.41 86.2159C1159.89 86.6941 1160.16 87.3427 1160.16 88.0189V93.1185ZM1171.63 103.318H1143.58C1143.24 103.318 1142.92 103.452 1142.68 103.691C1142.44 103.93 1142.31 104.254 1142.31 104.593V107.142C1142.31 107.48 1142.44 107.805 1142.68 108.044C1142.92 108.283 1143.24 108.417 1143.58 108.417H1171.63C1171.97 108.417 1172.29 108.283 1172.53 108.044C1172.77 107.805 1172.91 107.48 1172.91 107.142V104.593C1172.91 104.254 1172.77 103.93 1172.53 103.691C1172.29 103.452 1171.97 103.318 1171.63 103.318Z" fill="#0F2A70" fill-opacity="0.03"/>
<defs>
<linearGradient id="paint0_linear_65_72" x1="720.47" y1="0" x2="720.47" y2="594" gradientUnits="userSpaceOnUse">
<stop stop-color="white" stop-opacity="0.92"/>
</linearGradient>
</defs>
</svg>
